<svg width="18" height="12" viewBox="0 0 18 12" fill="none" xmlns="http://www.w3.org/2000/svg">
<path d="M7.33741 2.03866C7.57162 1.81178 7.70121 1.50792 7.69828 1.1925C7.69535 0.877093 7.56013 0.575376 7.32175 0.352338C7.08336 0.1293 6.76088 0.00278631 6.42377 4.54747e-05C6.08665 -0.00269536 5.76187 0.118556 5.51938 0.337685L0.376446 5.14951C0.135408 5.3751 0 5.68102 0 6C0 6.31898 0.135408 6.6249 0.376446 6.85049L5.51938 11.6623C5.76187 11.8814 6.08665 12.0027 6.42377 12C6.76088 11.9972 7.08336 11.8707 7.32175 11.6477C7.56013 11.4246 7.69535 11.1229 7.69828 10.8075C7.70121 10.4921 7.57162 10.1882 7.33741 9.96133L4.38922 7.20296H16.7143C17.0553 7.20296 17.3823 7.07622 17.6234 6.85062C17.8645 6.62502 18 6.31904 18 6C18 5.68096 17.8645 5.37498 17.6234 5.14938C17.3823 4.92378 17.0553 4.79704 16.7143 4.79704H4.38922L7.33741 2.03866Z" fill="white"/>
</svg>
