<svg width="30" height="26" viewBox="0 0 30 26" fill="none" xmlns="http://www.w3.org/2000/svg">
<path d="M18.1823 1.23827L29.7321 13.0051L18.1823 24.7718C18.078 24.9107 17.9455 25.0252 17.7937 25.1076C17.642 25.19 17.4745 25.2384 17.3027 25.2495C17.1308 25.2606 16.9587 25.2342 16.7978 25.172C16.6369 25.1098 16.4911 25.0133 16.3703 24.889C16.2494 24.7647 16.1563 24.6156 16.0972 24.4517C16.0381 24.2878 16.0145 24.1129 16.0279 23.9389C16.0414 23.765 16.0915 23.596 16.175 23.4433C16.2584 23.2907 16.3733 23.158 16.5117 23.0543L25.1531 14.2231L2.16163 14.2231C1.84288 14.2231 1.53719 14.0948 1.3118 13.8664C1.0864 13.6379 0.95978 13.3281 0.95978 13.0051C0.95978 12.682 1.0864 12.3722 1.3118 12.1437C1.53719 11.9153 1.84288 11.787 2.16163 11.787L25.1531 11.787L16.5117 2.95578C16.287 2.72641 16.1614 2.41596 16.1625 2.09272C16.1637 1.76948 16.2914 1.45994 16.5178 1.23218C16.7441 1.00442 17.0504 0.877113 17.3693 0.878255C17.6882 0.879397 17.9937 1.0089 18.2184 1.23827H18.1823Z" fill="red"/>
</svg>
