<svg width="14" height="16" viewBox="0 0 14 16" fill="none" xmlns="http://www.w3.org/2000/svg">
<path d="M0 2C1.04048e-05 1.64894 0.10783 1.30406 0.312622 1.00003C0.517415 0.696 0.811964 0.443532 1.16667 0.268V14C1.16667 14.2652 1.28958 14.5196 1.50838 14.7071C1.72717 14.8946 2.02391 15 2.33333 15H11.6667C11.9761 15 12.2728 14.8946 12.4916 14.7071C12.7104 14.5196 12.8333 14.2652 12.8333 14V2C12.8333 1.73478 12.7104 1.48043 12.4916 1.29289C12.2728 1.10536 11.9761 1 11.6667 1H9.33333V0H11.6667C12.2855 0 12.879 0.210714 13.3166 0.585786C13.7542 0.960859 14 1.46957 14 2V14C14 14.5304 13.7542 15.0391 13.3166 15.4142C12.879 15.7893 12.2855 16 11.6667 16H2.33333C1.71449 16 1.121 15.7893 0.683417 15.4142C0.245833 15.0391 0 14.5304 0 14V2ZM2.33333 0V6.5C2.33333 6.59286 2.3635 6.68388 2.42045 6.76287C2.47741 6.84185 2.5589 6.90569 2.65579 6.94721C2.75269 6.98874 2.86116 7.00632 2.96905 6.99798C3.07695 6.98964 3.18 6.95571 3.26667 6.9L5.25 5.625L7.23333 6.9C7.32 6.95571 7.42305 6.98964 7.53095 6.99798C7.63884 7.00632 7.74731 6.98874 7.84421 6.94721C7.9411 6.90569 8.02259 6.84185 8.07955 6.76287C8.1365 6.68388 8.16667 6.59286 8.16667 6.5V0H2.33333ZM3.5 5.5V1H7V5.5L5.6 4.6C5.49903 4.53509 5.37622 4.5 5.25 4.5C5.12378 4.5 5.00097 4.53509 4.9 4.6L3.5 5.5Z" fill="#000842"/>
</svg>
