<svg width="13" height="13" viewBox="0 0 13 13" fill="none" xmlns="http://www.w3.org/2000/svg">
<path d="M11.7988 9.13298L8.84751 7.81236C8.7331 7.76284 8.60815 7.74263 8.48397 7.75354C8.35978 7.76445 8.24028 7.80615 8.13626 7.87486C8.12794 7.88013 8.12001 7.88598 8.11251 7.89236L6.56251 9.21361C6.52801 9.23465 6.48886 9.24685 6.44853 9.24914C6.40819 9.25143 6.36791 9.24373 6.33126 9.22673C5.31626 8.73673 4.26563 7.69423 3.77563 6.69111C3.7583 6.65473 3.75025 6.61463 3.75222 6.57438C3.75418 6.53413 3.76609 6.495 3.78688 6.46048L5.11188 4.88486C5.11813 4.87736 5.12376 4.86923 5.12938 4.86111C5.19788 4.75723 5.23945 4.63795 5.25036 4.51401C5.26127 4.39006 5.24118 4.26535 5.19188 4.15111L3.86876 1.20486C3.80488 1.05564 3.69432 0.931166 3.55367 0.850136C3.41303 0.769107 3.24989 0.735893 3.08876 0.755483C2.30224 0.859183 1.58036 1.24565 1.05796 1.84269C0.535562 2.43974 0.248363 3.20653 0.250007 3.99986C0.250007 8.82486 4.17501 12.7499 9.00001 12.7499C9.79333 12.7515 10.5601 12.4643 11.1572 11.9419C11.7542 11.4195 12.1407 10.6976 12.2444 9.91111C12.2638 9.75071 12.231 9.58832 12.1507 9.44812C12.0704 9.30791 11.9469 9.19738 11.7988 9.13298ZM11.75 9.84861C11.6617 10.5147 11.3339 11.1258 10.8278 11.5678C10.3217 12.0097 9.67192 12.2522 9.00001 12.2499C4.45126 12.2499 0.750007 8.54861 0.750007 3.99986C0.747679 3.32795 0.99015 2.67819 1.43209 2.17207C1.87402 1.66595 2.48517 1.33812 3.15126 1.24986C3.16125 1.24926 3.17127 1.24926 3.18126 1.24986C3.23058 1.25028 3.27867 1.26528 3.31949 1.29297C3.3603 1.32066 3.39201 1.35981 3.41063 1.40548L4.73001 4.35173C4.7454 4.38774 4.75212 4.42686 4.74962 4.46595C4.74713 4.50503 4.73548 4.54298 4.71563 4.57673L3.39126 6.15173C3.38501 6.15986 3.37876 6.16736 3.37313 6.17611C3.30257 6.28401 3.26102 6.40827 3.25248 6.5369C3.24394 6.66554 3.26871 6.79421 3.32438 6.91048C3.86751 8.02236 4.98751 9.13423 6.11188 9.67736C6.22895 9.73267 6.35835 9.75674 6.48748 9.74721C6.61661 9.73768 6.74107 9.69488 6.84876 9.62298L6.87188 9.60548L8.42376 8.28548C8.45695 8.2652 8.49449 8.2531 8.53329 8.25016C8.57208 8.24723 8.61101 8.25355 8.64688 8.26861L11.5975 9.59111C11.6473 9.61184 11.6891 9.64811 11.7165 9.69452C11.744 9.74093 11.7558 9.79498 11.75 9.84861Z" fill="#000842"/>
</svg>
